<svg xmlns="http://www.w3.org/2000/svg" width="24" height="24" fill="none"><path d="M8.152 2.25C3.797 2.25.251 5.797.25 10.152v8.817a2.09 2.09 0 0 0 2.078 2.078c.346 0 .729-.002 1.143-.117.159-.044.291-.216.449-.303.775 1.035 2.01 2.127 4.11 2.127.839 0 1.559-.3 2.013-.809s.648-1.128.793-1.75c.278-1.196.42-2.482.975-3.543a14.8 14.8 0 0 0 3.103-1.63c3.48-2.391 6.568-5.791 8.12-7.616 1.712-2.015.083-5.156-2.481-5.156Zm0 1.5h12.4c1.35 0 2.252 1.61 1.339 2.686-1.314 1.545-3.87 4.196-6.65 6.359v-1.373a3.83 3.83 0 0 0-3.817-3.815H9.77a.75.75 0 0 0-.75.75.75.75 0 0 0 .75.75h1.653a2.306 2.306 0 0 1 2.316 2.317v2.533c-.898.596-1.803 1.15-2.775 1.469-.93.304-1.901.46-2.88.459-1.246 0-2.214.523-2.913 1.195-.7.672-1.19 1.465-1.717 2.145a.6.6 0 0 1-.385.26c-.167.046-.42.062-.742.062a.567.567 0 0 1-.578-.578v-8.817A6.39 6.39 0 0 1 8.152 3.75m1.918 13.318c-.333 1.037-.522 2.046-.695 2.787-.123.527-.279.897-.451 1.09-.173.194-.357.309-.895.309-1.644 0-2.482-.813-3.013-1.582.411-.558.803-1.135 1.195-1.512.514-.494 1.01-.775 1.875-.775.674 0 1.324-.192 1.984-.317" style="baseline-shift:baseline;display:inline;overflow:visible;vector-effect:none;fill:#000;stroke-linecap:round;stop-color:#000;stop-opacity:1;opacity:1"/></svg>