<svg xmlns="http://www.w3.org/2000/svg" width="24" height="24" fill="none"><g clip-path="url(#a)" style="opacity:1;mix-blend-mode:normal;fill-rule:nonzero;stroke-width:.905158;stroke-dasharray:none;paint-order:stroke fill markers" transform="matrix(.98075 0 0 1.01575 -.119 -.23)"><path d="M4.68.25a.75.75 0 0 0-.75.75v1c0 2.07.892 3.803 2.258 4.967 1.151.981 2.65 1.478 4.222 1.64-.06.567-.1 1.181-.246 1.485-.21.439-.446.677-1.35.79v-.001c-2.176.273-3.734 1.487-4.457 2.941C1.963 14.86.25 17.226.25 20v3a.75.75 0 0 0 .75.75.75.75 0 0 0 .75-.75v-3c0-2.204 1.386-4.09 3.31-4.87a.75.75 0 0 0 .424-.437c.35-.953 1.63-2.085 3.518-2.322 1.239-.155 2.113-.793 2.514-1.63.4-.838.431-1.751.5-2.686a.75.75 0 0 0-.748-.805c-1.57 0-3.046-.52-4.108-1.426S5.43 3.651 5.43 2V1a.75.75 0 0 0-.75-.75m3 0a.75.75 0 0 0-.75.75v1c0 1.398.7 2.463 1.642 3.027s2.062.723 3.108.723a.75.75 0 0 0 .722-.55c.49-1.782 1.966-2.641 3.725-2.78 1.758-.139 3.695.554 4.752 1.842 1.182 1.443 1.502 3.676 1.32 5.884s-.86 4.368-1.41 5.477c-1.129 2.27-3.907 5.7-10.803 5.7-2.343 0-3.922-1.408-4.492-3.21a.75.75 0 0 0-1.254-.295c-.673.696-.99 1.638-.99 2.608V23a.75.75 0 0 0 .75.75.75.75 0 0 0 .75-.75v-2.574c0-.116.087-.17.1-.278 1.07 1.572 2.877 2.674 5.136 2.674 7.407 0 10.83-3.886 12.145-6.531.67-1.348 1.365-3.597 1.564-6.021s-.09-5.049-1.654-6.957l-.002-.002c-1.44-1.756-3.812-2.562-6.03-2.387-1.995.158-3.89 1.254-4.75 3.234-.712-.049-1.442-.134-1.915-.418-.577-.346-.914-.782-.914-1.74V1a.75.75 0 0 0-.75-.75m5.818 11.3a.75.75 0 0 0-.668.413c-.606 1.201-1.387 1.622-3.078 1.96-1.146.23-2.258 1.24-2.258 2.694 0 1.241.662 2.365 1.8 2.828 1.14.464 2.611.37 4.423-.234 2.804-.936 4.9-3.506 5.691-6.732a.75.75 0 0 0-.728-.928zm.299 1.5h3.697c-.838 2.284-2.309 4.09-4.252 4.74-1.613.537-2.758.52-3.38.267-.624-.254-.868-.644-.868-1.44 0-.67.555-1.123 1.053-1.222 1.677-.337 2.91-1.079 3.75-2.344" style="baseline-shift:baseline;display:inline;overflow:visible;opacity:1;fill:#000;stroke-width:.905158;stroke-linecap:round;stroke-linejoin:round;stroke-dasharray:none;paint-order:stroke fill markers;stop-color:#000;stop-opacity:1"/></g></svg>