<svg width="1em" height="1em" viewBox="0 0 48 48"><path fill="currentColor" fill-rule="evenodd" d="M24 2.628c-8.173 0-14.8 6.192-14.8 13.829H6.51C6.51 7.431 14.34.114 24 .114S41.49 7.43 41.49 16.457c0 5.659-3.08 10.644-7.75 13.577-3.189 2-5.704 4.66-5.704 7.683v.112c0 5.554-4.82 10.057-10.763 10.057-5.945 0-10.763-4.503-10.763-10.057v-2.515H9.2v2.515c0 4.166 3.615 7.543 8.073 7.543 4.457 0 8.072-3.377 8.072-7.543v-.112c0-4.346 3.536-7.664 6.894-9.77 3.96-2.485 6.559-6.704 6.559-11.49C38.798 8.82 32.173 2.628 24 2.628m-6.135 12.597c.478-2.143 2.452-3.797 4.886-3.797 2.803 0 4.997 2.194 4.997 4.803h2.498c0-4.084-3.399-7.317-7.495-7.317-4.097 0-7.496 3.233-7.496 7.317 0 2.061.798 3.71 2.522 4.663.936.516 1.562.955 1.944 1.308q.139.13.216.22c-.23.11-.606.234-1.169.343l.47 2.47c.84-.161 1.619-.403 2.21-.784.617-.398 1.207-1.087 1.127-2.074-.07-.837-.613-1.516-1.165-2.027-.59-.545-1.41-1.097-2.43-1.662a2.149 2.162 0 0 1-.928-.935c.866.058 1.933.191 2.983.482 1.179.324 2.245.82 3.002 1.537.711.673 1.2 1.584 1.212 2.926-.162 1.71-.564 2.816-1.024 3.532-.455.707-1 1.094-1.568 1.319-.59.234-1.24.305-1.895.305-.325 0-.637-.017-.937-.037l-.115-.007a12.493 12.572 0 0 0-.752-.035c-1.187 0-1.787.926-2.065 1.469-.193.376-.381.888-.545 1.33-.069.186-.132.36-.19.504-.237.597-.467 1.03-.743 1.319-.231.238-.519.403-1.02.403-.664 0-1.009-.15-1.184-.271a.924.93 0 0 1-.352-.473 2.124 2.137 0 0 1-.085-.922v-.003.003l-.001.004v.003s0 .002-1.231-.224l-1.228-.225v.002l-.001.003-.002.006-.002.018a2.499 2.514 0 0 0-.026.2c-.013.123-.025.29-.025.486 0 .387.045.937.255 1.511a3.43 3.43 0 0 0 1.286 1.686c.681.47 1.55.71 2.595.71 1.21 0 2.134-.462 2.814-1.166.632-.655 1.008-1.476 1.27-2.137.12-.3.212-.552.291-.771.125-.34.22-.6.346-.847q.029-.057.053-.097l.374.023.123.008c.311.02.687.042 1.097.042.812 0 1.813-.086 2.81-.48 1.019-.403 1.993-1.116 2.75-2.294.745-1.159 1.237-2.706 1.42-4.729q.006-.057.006-.113c0-2.084-.792-3.669-1.997-4.811-1.168-1.108-2.668-1.752-4.056-2.134-1.4-.384-2.78-.53-3.795-.582zm1.378 14.96-.012.013z" clip-rule="evenodd" style="stroke-width:1.25322"/></svg>