<svg xmlns="http://www.w3.org/2000/svg" width="1em" height="1em" viewBox="0 0 48 48"><path d="M15.931 11.396h6.54v9.658a2.18 2.414 0 0 0 2.18 2.414 2.18 2.414 0 0 0 2.18-2.414v-9.658h6.541v14.486a8.72 9.658 0 0 1-17.441 0zm-6.54-4.829a6.8 6.8 0 0 0-1.755.207l-.127.038c-3.292.98-2.479 4.584-2.479 4.584s0 2.74 2.125 5.616l.056.071c.963 1.28 2.354 2.582 4.36 3.674v5.125a13.08 14.487 0 0 0 .017.713q.048.548.085 1.098a13.08 14.487 0 0 0 0 .015l.009.117.004.08.008.114q.01.044.017.09.016.104.035.207.028.093.042.188.004.091.026.18c.022.086.035.175.05.264q.007.045.01.085c.023.09.044.183.055.278q.001.015.004.028v.005l.213.83a10.088 7.398 0 0 0-.022-.014l.094.302a6.098 6.157 0 0 0 0 .005v.004h.004v.005l.009.02v.009l.013.037.136.444.021.06.043.138c.202.423.427.837.66 1.24l.004.005.009.014.004.005a6.098 6.157 0 0 0 0 .005 24 24 0 0 0 1.12 1.73l.038.052q.289.408.6.793.11.133.222.264v.005l.072.084a3.856 3.079 0 0 0-.03-.066c.097.113.178.24.277.35l.09.094q.217.226.438.448l.064.061.23.222v.005l.026.023.14.137a5.515 1.34 0 0 0 0-.005l.026.024-.004-.01c.305.292.609.583.924.863q.414.355.864.646h.004q.35.228.716.43h.008q.451.246.911.471c.833.266 1.688.422 2.547.542q.184-.046.426-.033c1.023.063 2.046.124 3.07.165.875.025 1.753-.016 2.623-.122a37 37 0 0 0 2.193-1.396l.008.01c.12-.082.247-.167.366-.25h.005l.004-.006h.004q.167-.118.332-.24l.132-.094h.005l.004-.005c.406-.296.808-.61 1.2-.93.028-.021.059-.038.086-.06h.004v-.005h.005v-.005h.004l.004-.005.098-.085h.004l.005-.005.153-.127.021-.029.077-.108.038-.057.085-.122.06-.085q.056-.082.11-.165l.09-.132.06-.085h.004v-.01l.085-.118.46-.679q.157-.228.31-.457.059-.087.116-.175.142-.207.28-.415l.005-.005q.51-.771.997-1.56c.071-.117.15-.233.221-.35.34-.598.506-.867.813-1.48q.099-.197.192-.396v-.005q.05-.101.098-.203.097-.38.174-.769c.007-.082.02-.164.03-.245a.7.7 0 0 1 .051-.193 16 16 0 0 0 .226-2.698V20.88a15.915 17.625 0 0 0 4.19-2.976l.175-.179c2.98-3.112 3.27-6.328 3.27-6.328s.003-4.241-3.59-4.772l-.049-.01a5 5 0 0 0-.732-.047zM3.689 9.594V9.6h.004v-.005zm-.004.01v.005h.004v-.005z" style="fill:#000;fill-opacity:1;stroke-width:2.2943;fill-rule:nonzero"/></svg>