<svg xmlns="http://www.w3.org/2000/svg" width="24" height="24" fill="none"><path d="M7.34 4.252c-1.82.144-3.41 1.713-4.72 3.234-.657.76-1.222 1.53-1.632 2.168a9 9 0 0 0-.496.856c-.124.25-.242.366-.242.79 0 .29.044.29.078.387s.077.202.131.325v.002c.404.909 1.467 2.781 3.348 4.49s4.61 3.228 8.193 3.228c3.584 0 6.311-1.519 8.193-3.228s2.944-3.583 3.348-4.49h-.002c.056-.125.099-.231.133-.328.034-.098.078-.102.078-.385 0-.425-.118-.542-.242-.791a9 9 0 0 0-.496-.856 20 20 0 0 0-1.631-2.168c-1.312-1.52-2.9-3.09-4.72-3.234-1.206-.096-2.175.199-2.934.482-.76.284-1.314.514-1.727.514s-.965-.23-1.725-.514c-.76-.283-1.73-.578-2.935-.482m.119 1.496c.91-.072 1.6.133 2.291.39.692.259 1.382.61 2.25.61s1.558-.351 2.25-.61c.692-.257 1.382-.462 2.291-.39.883.07 2.493 1.313 3.705 2.719a18 18 0 0 1 1.502 1.998c.08.123.117.201.18.308-1.03-.268-2.434-.667-4.37-.82h-.001c-1.282-.098-2.424.275-3.377.631-.954.356-1.756.664-2.18.664s-1.226-.308-2.18-.664c-.953-.356-2.095-.729-3.377-.63h-.002c-1.934.152-3.34.551-4.369.82.064-.108.1-.185.18-.31.367-.572.896-1.296 1.502-2C4.966 7.06 6.576 5.819 7.459 5.749m-.902 5.7c.918-.07 1.837.206 2.738.542s1.75.758 2.705.758 1.804-.422 2.705-.758c.9-.335 1.819-.612 2.736-.543 1.825.145 3.274.547 4.239.8a12.4 12.4 0 0 1-2.494 3.148c-1.68 1.526-4.022 2.837-7.186 2.837s-5.506-1.312-7.186-2.837a12.4 12.4 0 0 1-2.496-3.149c.965-.251 2.415-.654 4.239-.799" style="baseline-shift:baseline;display:inline;overflow:visible;vector-effect:none;fill:#000;stop-color:#000;stop-opacity:1;opacity:1"/></svg>