<svg xmlns="http://www.w3.org/2000/svg" width="1em" height="1em" viewBox="0 0 48 48"><g fill="currentColor"><path d="M19.099.009h5.335v3.526c1.698-.104 3.343-.005 4.82.307-6.268 2.468-9.153 8.81-9.626 9.848l-.029.064c-1.533-.232-3.192-.427-4.762-.412-1.62.138-3.189.377-5.775 1.834-.366.259-.857.68-1.525 1.326-.048-.036-.1-.067-.168-.111l-.201-.128a16 16 0 0 0-1.566-.894c-1.355-.672-3.017-1.244-4.646-1.244V8.95c2.816 0 5.349.956 7.076 1.814.599.297 1.124.593 1.56.857a10 10 0 0 1 1.501-2.29L8.161 4.734l4.697-3.05 2.703 4.242A21.3 21.3 0 0 1 19.098 4.5zM33.447 11.6c-1.945.902-3.628 2.382-5.145 5.234 0 0-3.366-1.54-6.098-2.34 2.097-4.25 4.535-6.64 8.132-8.307 3.48-1.614 7.63-2.027 12.563-1.855l-.235 6.346c-4.549-.157-7.156-.033-9.217.922"/><path d="M10.137 17.642c-9.688 8.64 4.15 30.242 15.223 30.242 11.072 0 26.317-21.583 15.223-31.477a63 63 0 0 1-.688-.624c-.918-.84-1.527-1.4-3.22-2.407-3.404 0-5.456 3.406-6.39 5.481a1.6 1.6 0 0 1-.173.294l-2.154 5.989-.775 2.786a1.33 1.33 0 0 0 .06.887l.907 2.094 4.691-.544.309 2.649-4.414.513.287 4.203-2.661.182-.358-5.243-1.208-2.795a4 4 0 0 1-.183-2.662l.023-.083-2.713 1.227-1.774 4.483-2.481-.981 1.406-3.551-4.282-1.009.61-2.597 5.344 1.26 4.875-2.208 1.641-4.562c-4.226-1.986-12.904-5.315-17.127-1.55"/></g></svg>